#!OML:ASF H:\Terrain\Patient Classification 1\Walking\liu\liu.ASF
:FULLY-SPECIFIED
:DEGREES
97
root 14.109974 24.439201 -35.479500 5.006850 -3.488460 5.723790
lowerback -10.461405 -3.104160 -6.921630
upperback -0.428958 -3.712635 3.257970
thorax 5.866995 -2.001720 6.899760
lowerneck -31.557301 -7.385010 -18.935551
upperneck 29.634598 -8.327850 16.860750
head 15.741600 -3.317805 7.962705
rclavicle -0.000000 0.000000
rhumerus -65.252396 17.768101 -130.653305
rradius 57.424797
rwrist -32.567398
rhand -45.934200 -35.901901
rfingers 10.687531
rthumb -5.878365 -80.817451
lclavicle -0.000000 0.000000
lhumerus -30.844500 -32.008350 130.958847
lradius 52.423347
lwrist 13.061924
lhand -23.335199 -37.981651
lfingers 10.687531
lthumb 15.941549 6.585210
rfemur -49.444199 5.112480 23.962950
rtibia 69.516006
rfoot -31.193851 -16.029449
rtoes -27.940950
lfemur -7.654935 0.704112 -43.977001
ltibia 32.273102
lfoot -27.657150 11.076780
ltoes -1.346568
98
root 14.111879 24.428551 -35.299797 4.896315 -2.762310 5.442615
lowerback -10.351590 -3.210990 -6.491970
upperback -0.498942 -3.894780 3.286965
thorax 5.735115 -2.079990 6.670425
lowerneck -30.986549 -7.432110 -19.137901
upperneck 29.610001 -8.434725 17.000700
head 15.652649 -3.382980 8.032186
rclavicle 0.000000 0.000000
rhumerus -65.846703 17.859001 -130.757248
rradius 57.415798
rwrist -32.928902
rhand -46.549049 -35.132702
rfingers 10.687531
rthumb -6.472095 -80.036850
lclavicle 0.000000 0.000000
lhumerus -30.805950 -32.401199 131.064148
lradius 53.285851
lwrist 13.361235
lhand -22.829250 -37.960201
lfingers 10.687531
lthumb 16.429501 6.581250
rfemur -49.978951 5.530590 23.929350
rtibia 67.458900
rfoot -30.873451 -15.457050
rtoes -27.901199
lfemur -6.315045 0.161418 -43.716900
ltibia 31.216650
lfoot -27.655949 11.178000
ltoes -2.573145
99
root 14.110455 24.423599 -35.109901 4.926450 -2.138235 5.454090
lowerback -10.553926 -3.347295 -6.406140
upperback -0.579549 -4.075845 3.290040
thorax 5.780910 -2.167665 6.599850
lowerneck -30.549150 -7.393695 -19.478550
upperneck 29.818651 -8.390805 17.186550
head 15.656849 -3.382365 8.174655
rclavicle 0.000000 -0.000000
rhumerus -66.096451 17.779949 -130.602295
rradius 57.042450
rwrist -33.125999
rhand -46.554298 -34.466400
rfingers 10.687531
rthumb -6.477120 -79.370255
lclavicle 0.000000 -0.000000
lhumerus -30.859200 -32.870251 131.301605
lradius 54.175949
lwrist 14.189640
lhand -22.280550 -37.594051
lfingers 10.687531
lthumb 16.958700 6.918945
rfemur -50.674049 6.405705 23.424749
rtibia 65.546555
rfoot -30.933151 -15.008551
rtoes -26.050800
lfemur -4.947510 0.227991 -43.681053
ltibia 29.947350
lfoot -27.609749 10.695465
ltoes -2.219940
100
root 14.108910 24.419701 -34.914452 5.122650 -1.651755 5.729490
lowerback -10.943399 -3.523800 -6.686745
upperback -0.636802 -4.271535 3.244470
thorax 5.973090 -2.272455 6.676800
lowerneck -30.566551 -7.315140 -19.634251
upperneck 30.161850 -8.274810 17.265299
head 15.774751 -3.334350 8.261430
rclavicle 0.000000 0.000000
rhumerus -65.946899 17.509949 -130.299606
rradius 56.375397
rwrist -32.869202
rhand -45.805050 -34.343700
rfingers 10.687531
rthumb -5.753640 -79.261497
lclavicle 0.000000 0.000000
lhumerus -30.900749 -33.500099 131.464203
lradius 54.983551
lwrist 15.133499
lhand -22.520699 -37.607700
lfingers 10.687531
lthumb 16.727100 6.917775
rfemur -51.568504 7.435680 22.524899
rtibia 63.736801
rfoot -31.139849 -14.294130
rtoes -23.662350
lfemur -3.628095 0.494300 -43.853249
ltibia 28.363949
lfoot -27.336599 9.866446
ltoes -0.384742
101
root 14.112061 24.412949 -34.720352 5.214750 -1.172830 6.037066
lowerback -11.219295 -3.572055 -6.889530
upperback -0.588082 -4.298955 3.051855
thorax 6.181905 -2.293410 6.576045
lowerneck -30.608398 -7.515270 -19.621201
upperneck 30.365402 -8.551125 17.178751
head 15.893100 -3.470025 8.189295
rclavicle 0.000000 0.000000
rhumerus -66.158852 17.112000 -130.217987
rradius 56.263496
rwrist -32.170200
rhand -45.288601 -35.600548
rfingers 10.687531
rthumb -5.254875 -80.526901
lclavicle 0.000000 0.000000
lhumerus -30.886351 -34.711201 131.564087
lradius 55.850403
lwrist 15.937800
lhand -23.179649 -38.259300
lfingers 10.687531
lthumb 16.091702 6.299775
rfemur -52.336349 8.082195 21.676201
rtibia 61.929001
rfoot -31.261799 -13.548765
rtoes -25.411800
lfemur -1.988235 0.540273 -44.112000
ltibia 26.366100
lfoot -26.824650 9.453930
ltoes -1.127052
102
root 14.115855 24.423151 -34.530449 5.018445 -0.637079 5.997750
lowerback -11.261625 -3.520050 -6.587355
upperback -0.460844 -4.244040 2.852700
thorax 6.306735 -2.263320 6.198975
lowerneck -30.302399 -7.742520 -19.356300
upperneck 30.280201 -8.898254 16.815151
head 15.833099 -3.657720 7.948110
rclavicle -0.000000 -0.000000
rhumerus -66.443695 16.375500 -130.130096
rradius 56.367451
rwrist -31.667549
rhand -44.488800 -36.553497
rfingers 10.687531
rthumb -4.482555 -81.491699
lclavicle -0.000000 -0.000000
lhumerus -30.941700 -35.932949 131.688904
lradius 56.748901
lwrist 16.426350
lhand -23.645401 -38.903248
lfingers 10.687531
lthumb 15.642300 5.678760
rfemur -52.684052 8.484585 21.308550
rtibia 60.079651
rfoot -31.365150 -12.950234
rtoes -25.741201
lfemur 0.172499 0.503675 -44.025600
ltibia 24.046949
lfoot -26.231100 9.186541
ltoes -3.497670
103
root 14.115855 24.441599 -34.346848 4.731810 0.035264 5.851515
lowerback -11.062784 -3.615285 -6.285060
upperback -0.432438 -4.403145 2.825640
thorax 6.224550 -2.334840 5.987070
lowerneck -29.931751 -7.686030 -19.427099
upperneck 30.471451 -8.861985 16.825500
head 15.830250 -3.657600 7.977135
rclavicle -0.000000 0.000000
rhumerus -66.668999 15.983101 -129.950394
rradius 56.115898
rwrist -31.332899
rhand -44.563351 -36.225151
rfingers 10.687531
rthumb -4.554570 -81.162300
lclavicle -0.000000 0.000000
lhumerus -31.179752 -36.320850 131.932358
lradius 57.561150
lwrist 16.784550
lhand -23.117401 -38.718750
lfingers 10.687531
lthumb 16.151550 5.837220
rfemur -52.931549 8.754840 21.046350
rtibia 58.147648
rfoot -31.244551 -12.391379
rtoes -24.798901
lfemur 2.429880 0.381330 -43.770149
ltibia 21.677849
lfoot -25.730400 8.500605
ltoes -3.565515
104
root 14.112525 24.432751 -34.155598 4.666545 0.627401 6.255450
lowerback -11.029320 -3.766005 -6.716655
upperback -0.451347 -4.564125 2.706210
thorax 6.219120 -2.421345 6.088125
lowerneck -30.137850 -7.544085 -19.457399
upperneck 31.143751 -8.744175 17.078550
head 16.106251 -3.575730 8.120100
rclavicle -0.000000 -0.000000
rhumerus -67.025246 15.969749 -129.947098
rradius 55.822952
rwrist -30.913349
rhand -45.538200 -36.762451
rfingers 10.687531
rthumb -5.495880 -81.684753
lclavicle -0.000000 -0.000000
lhumerus -31.332150 -36.811199 132.161392
lradius 58.264198
lwrist 17.434650
lhand -22.184401 -38.161350
lfingers 10.687531
lthumb 17.051550 6.346500
rfemur -53.452202 9.068250 20.106899
rtibia 56.176651
rfoot -31.114201 -11.554290
rtoes -27.143549
lfemur 4.454940 0.300933 -44.105698
ltibia 19.341599
lfoot -25.288200 7.839870
ltoes -3.669015
105
root 14.110815 24.428701 -33.950401 4.885545 1.055646 6.420975
lowerback -11.412840 -3.845595 -6.888240
upperback -0.448300 -4.632360 2.559990
thorax 6.445950 -2.461605 6.009090
lowerneck -30.495449 -7.463835 -18.898500
upperneck 31.489948 -8.782485 17.033100
head 16.285648 -3.544335 8.013075
rclavicle -0.000000 0.000000
rhumerus -67.227753 15.681001 -129.994354
rradius 55.550850
rwrist -30.725550
rhand -45.220497 -36.305550
rfingers 10.687531
rthumb -5.189100 -81.233101
lclavicle -0.000000 0.000000
lhumerus -31.627350 -37.576347 132.318298
lradius 59.228104
lwrist 18.119999
lhand -22.020599 -37.814999
lfingers 10.687531
lthumb 17.209499 6.684060
rfemur -54.146545 9.705090 19.295399
rtibia 54.242397
rfoot -31.222200 -10.806615
rtoes -27.042450
lfemur 6.257100 0.372714 -44.207253
ltibia 17.030399
lfoot -24.884850 7.528680
ltoes -5.557920
106
root 14.111054 24.441750 -33.746998 5.281695 1.480254 6.002310
lowerback -11.832495 -3.908145 -6.524175
upperback -0.623223 -4.737540 2.709960
thorax 6.498345 -2.505240 5.935365
lowerneck -30.254099 -7.417604 -18.446100
upperneck 31.367252 -8.775705 16.622400
head 16.164150 -3.557925 7.776660
rclavicle 0.000000 -0.000000
rhumerus -67.326752 15.381000 -129.739502
rradius 55.139549
rwrist -30.554100
rhand -44.564247 -35.171700
rfingers 10.687531
rthumb -4.555305 -80.108849
lclavicle 0.000000 -0.000000
lhumerus -32.416801 -38.411400 132.915588
lradius 60.362698
lwrist 18.811199
lhand -22.712399 -37.326000
lfingers 10.687531
lthumb 16.542301 7.209480
rfemur -54.975300 10.614390 19.006351
rtibia 52.423199
rfoot -31.321350 -10.690155
rtoes -25.851299
lfemur 7.878840 0.475230 -43.655853
ltibia 14.612804
lfoot -24.386551 7.165319
ltoes -5.847765
107
root 14.106436 24.421949 -33.547951 5.685570 1.882290 5.827170
lowerback -12.245520 -3.980010 -6.366301
upperback -0.836478 -4.836675 2.817765
thorax 6.514815 -2.548065 5.935170
lowerneck -29.967598 -7.424850 -18.552900
upperneck 31.453651 -8.759670 16.492500
head 16.138199 -3.583005 7.751610
rclavicle -0.000000 0.000000
rhumerus -67.557899 15.152249 -129.587555
rradius 54.778801
rwrist -30.324600
rhand -45.069901 -35.368050
rfingers 10.687531
rthumb -5.043750 -80.298004
lclavicle -0.000000 0.000000
lhumerus -33.092400 -38.940598 133.531799
lradius 61.075203
lwrist 19.250851
lhand -22.776600 -37.276051
lfingers 10.687531
lthumb 16.480350 7.262685
rfemur -55.927048 11.385240 18.496201
rtibia 50.738998
rfoot -31.384649 -10.738995
rtoes -28.290451
lfemur 9.610575 0.582866 -43.325550
ltibia 11.777790
lfoot -23.548201 6.615630
ltoes -4.392720
108
root 14.099834 24.385052 -33.352501 5.708745 2.462745 6.162360
lowerback -12.267480 -4.144740 -6.744840
upperback -0.883121 -5.019090 2.782200
thorax 6.517185 -2.644560 6.087975
lowerneck -30.021000 -7.461495 -18.987749
upperneck 31.861202 -8.780745 16.807350
head 16.326450 -3.592950 7.956285
rclavicle 0.000000 0.000000
rhumerus -68.085747 15.168600 -129.653702
rradius 54.794552
rwrist -29.874451
rhand -45.389252 -36.001198
rfingers 10.687531
rthumb -5.352045 -80.926048
lclavicle 0.000000 0.000000
lhumerus -33.440701 -38.893051 133.981644
lradius 61.467300
lwrist 19.182600
lhand -22.344000 -37.662903
lfingers 10.687531
lthumb 16.897501 6.853320
rfemur -56.518196 11.867880 17.474550
rtibia 49.189804
rfoot -31.553850 -10.620075
rtoes -29.893049
lfemur 12.299955 0.545164 -43.531200
ltibia 7.954695
lfoot -22.216351 6.132030
ltoes -4.287405
109
root 14.092110 24.368252 -33.161999 5.553990 2.947770 6.524475
lowerback -11.191666 -4.424490 -8.192985
upperback -1.481415 -5.357805 3.638415
thorax 5.471775 -2.808330 7.823730
lowerneck -30.004650 -7.412820 -19.761900
upperneck 32.659649 -8.367990 16.221750
head 16.565849 -3.545340 7.959855
rclavicle -0.000000 0.000000
rhumerus -69.652054 16.885799 -129.004349
rradius 55.342354
rwrist -29.910301
rhand -45.539398 -36.949501
rfingers 10.687531
rthumb -5.497080 -81.871796
lclavicle -0.000000 0.000000
lhumerus -34.801800 -37.875149 136.085999
lradius 61.873947
lwrist 18.864000
lhand -22.202999 -37.789047
lfingers 10.687531
lthumb 17.033550 6.719820
rfemur -56.932652 12.616290 16.333500
rtibia 47.800800
rfoot -31.772249 -10.484310
rtoes -30.286800
lfemur 17.348850 0.619217 -43.736702
ltibia -0.000000
lfoot -18.962851 5.512215
ltoes -5.316270
110
root 14.085615 24.363598 -32.965797 5.607450 3.417210 6.475770
lowerback -12.329670 -4.379115 -6.714915
upperback -0.780154 -5.315205 2.448900
thorax 6.667755 -2.791830 5.677845
lowerneck -29.899651 -7.388940 -18.791100
upperneck 31.922249 -8.819235 17.024549
head 16.331850 -3.572820 8.001795
rclavicle -0.000000 0.000000
rhumerus -68.852852 15.322949 -130.193848
rradius 54.881252
rwrist -29.714851
rhand -45.789150 -36.526199
rfingers 10.687531
rthumb -5.738265 -81.444298
lclavicle -0.000000 0.000000
lhumerus -34.442249 -39.870750 134.467804
lradius 62.614349
lwrist 19.627651
lhand -21.530100 -37.834652
lfingers 10.687531
lthumb 17.682449 6.637665
rfemur -57.568199 13.542495 15.518400
rtibia 46.588352
rfoot -31.923000 -10.754129
rtoes -32.334747
lfemur 18.053850 0.706206 -43.546200
ltibia -0.000000
lfoot -19.475399 5.069955
ltoes -6.534555
